<?xml version="1.0" encoding="iso-8859-1"?>
<!-- Generator: Adobe Illustrator 19.0.0, SVG Export Plug-In . SVG Version: 6.00 Build 0)  -->
<svg version="1.1" id="Layer_1" xmlns="http://www.w3.org/2000/svg" xmlns:xlink="http://www.w3.org/1999/xlink" x="0px" y="0px"
	 viewBox="0 0 512 512" style="enable-background:new 0 0 512 512;" xml:space="preserve">
<path style="fill:#EDB2D8;" d="M256,10.199C120.248,10.199,10.199,120.248,10.199,256S120.248,501.801,256,501.801
	S501.801,391.752,501.801,256S391.752,10.199,256,10.199z M256,276.398c-11.266,0-20.398-9.132-20.398-20.398
	c0-11.266,9.132-20.398,20.398-20.398c11.266,0,20.398,9.132,20.398,20.398C276.398,267.266,267.266,276.398,256,276.398z"/>
<path style="fill:#74C1F2;" d="M256,184.606c-39.43,0-71.394,31.964-71.394,71.394S216.57,327.394,256,327.394
	S327.394,295.43,327.394,256S295.43,184.606,256,184.606z M256,276.398c-11.266,0-20.398-9.132-20.398-20.398
	c0-11.266,9.132-20.398,20.398-20.398c11.266,0,20.398,9.132,20.398,20.398C276.398,267.266,267.266,276.398,256,276.398z"/>
<path d="M437.02,74.98C388.667,26.628,324.38,0,256,0S123.333,26.628,74.98,74.98S0,187.62,0,256s26.628,132.667,74.98,181.02
	S187.62,512,256,512s132.667-26.628,181.02-74.98S512,324.38,512,256S485.372,123.333,437.02,74.98z M256,491.602
	c-129.911,0-235.602-105.69-235.602-235.602S126.089,20.398,256,20.398S491.602,126.089,491.602,256S385.911,491.602,256,491.602z"
	/>
<path d="M256,225.402c-16.872,0-30.598,13.726-30.598,30.598s13.726,30.598,30.598,30.598s30.598-13.726,30.598-30.598
	S272.872,225.402,256,225.402z M256,266.199c-5.624,0-10.199-4.575-10.199-10.199c0-5.624,4.575-10.199,10.199-10.199
	c5.624,0,10.199,4.575,10.199,10.199C266.199,261.624,261.624,266.199,256,266.199z"/>
<path d="M395.803,380.358c-3.983-3.983-10.441-3.983-14.425,0c-3.983,3.983-3.983,10.441,0,14.425l7.139,7.139
	c1.992,1.992,4.602,2.987,7.212,2.987s5.221-0.995,7.212-2.987c3.983-3.983,3.983-10.441,0-14.425L395.803,380.358z"/>
<path d="M320.865,305.421c10.484-13.727,16.729-30.855,16.729-49.421c0-44.991-36.603-81.594-81.594-81.594
	c-33.43,0-62.214,20.217-74.807,49.059l-65.116-19.069c-5.408-1.584-11.071,1.515-12.655,6.921
	c-1.583,5.406,1.516,11.071,6.922,12.654l65.103,19.066c-0.676,4.224-1.04,8.55-1.04,12.962c0,44.991,36.603,81.594,81.594,81.594
	c19.087,0,36.65-6.605,50.563-17.626l51.359,51.359c1.992,1.991,4.602,2.987,7.212,2.987c2.61,0,5.221-0.996,7.212-2.987
	c3.983-3.983,3.983-10.441,0-14.425L320.865,305.421z M256,317.195c-33.743,0-61.195-27.452-61.195-61.195
	s27.452-61.195,61.195-61.195s61.195,27.452,61.195,61.195S289.743,317.195,256,317.195z"/>
<path d="M171.275,184.679c1.992,1.992,4.602,2.987,7.212,2.987s5.221-0.995,7.212-2.987c3.983-3.983,3.983-10.441,0-14.425
	l-62.216-62.216c-3.983-3.983-10.441-3.983-14.425,0c-3.983,3.983-3.983,10.441,0,14.425L171.275,184.679z"/>
<path d="M401.656,288.029l-41.817-12.246c-5.41-1.583-11.072,1.516-12.655,6.922s1.516,11.071,6.922,12.655l41.817,12.246
	c0.957,0.279,1.922,0.413,2.871,0.413c4.412,0,8.481-2.886,9.784-7.335C410.16,295.277,407.061,289.611,401.656,288.029z"/>
<g>
</g>
<g>
</g>
<g>
</g>
<g>
</g>
<g>
</g>
<g>
</g>
<g>
</g>
<g>
</g>
<g>
</g>
<g>
</g>
<g>
</g>
<g>
</g>
<g>
</g>
<g>
</g>
<g>
</g>
</svg>
